<?xml version="1.0" encoding="iso-8859-1"?>
<!DOCTYPE svg PUBLIC "-//W3C//DTD SVG 1.1//EN" "http://www.w3.org/Graphics/SVG/1.1/DTD/svg11.dtd">
<svg 
 version="1.1" xmlns="http://www.w3.org/2000/svg" xmlns:xlink="http://www.w3.org/1999/xlink" x="0px" y="0px" width="512px"
	 height="512px" viewBox="0 0 512 512" style="enable-background:new 0 0 512 512;" xml:space="preserve"
><g id="7935ec95c421cee6d86eb22ecd10ebdb"><g></g><path style="display: inline;" d="M256,0.5C114.891,0.5,0.5,114.893,0.5,256S114.891,511.5,256,511.5
		c141.107,0,255.5-114.393,255.5-255.5S397.107,0.5,256,0.5z M351.813,149.542c29.396,0,53.229,23.833,53.229,53.229
		c0,29.396-23.833,53.229-53.229,53.229s-53.229-23.833-53.229-53.229C298.583,173.374,322.416,149.542,351.813,149.542z
		 M160.188,149.542c29.396,0,53.229,23.833,53.229,53.229c0,29.396-23.833,53.229-53.229,53.229s-53.229-23.833-53.229-53.229
		C106.958,173.374,130.791,149.542,160.188,149.542z M412.544,388.366c-1.764,0.682-3.585,1.006-5.369,1.006
		c-5.959,0-11.581-3.597-13.881-9.473c-1.293-3.265-32.939-79.956-137.851-79.956c-118.899,0-135.344,74.213-135.986,77.373
		c-1.626,8.026-9.426,13.304-17.472,11.719c-8.034-1.567-13.312-9.269-11.806-17.315c0.191-1.015,20.693-101.585,165.264-101.585
		c125.912,0,164.066,94.914,165.625,98.952C424.038,376.764,420.225,385.396,412.544,388.366z"></path></g></svg>