<?xml version="1.0" encoding="iso-8859-1"?>
<!DOCTYPE svg PUBLIC "-//W3C//DTD SVG 1.1//EN" "http://www.w3.org/Graphics/SVG/1.1/DTD/svg11.dtd">
<svg 
 version="1.1" xmlns="http://www.w3.org/2000/svg" xmlns:xlink="http://www.w3.org/1999/xlink" x="0px" y="0px" width="512px"
	 height="512px" viewBox="0 0 512 512" style="enable-background:new 0 0 512 512;" xml:space="preserve"
><g id="afcae5a789ccd549f9c6e2a2f81726cb"><g></g><path style="display: inline; fill-rule: evenodd; clip-rule: evenodd;" d="M256,479.904c-13.663,0-27.01-1.313-39.953-3.791
		L149.361,511.5l0.582-0.833l131.481-109.383l-49.435-7.071l129.944-191.471h-110.17L366.493,0.5l-20.637,77.116
		c71.684,33.759,121.306,106.642,121.306,191.125C467.162,385.364,372.623,479.904,256,479.904z M147.948,255.022h105.225
		l-60.731,120.818l-31.075-36.03l-9.208,112.82C88.09,416.371,44.838,347.616,44.838,268.741
		c0-107.639,80.543-196.468,184.65-209.505L147.948,255.022z"></path></g></svg>